<svg width="23" height="23" viewBox="0 0 23 23" fill="none" xmlns="http://www.w3.org/2000/svg">
<path d="M5.74992 18.207V9.58203C5.74992 8.05704 6.35572 6.5945 7.43405 5.51617C8.51239 4.43783 9.97492 3.83203 11.4999 3.83203C13.0249 3.83203 14.4874 4.43783 15.5658 5.51617C16.6441 6.5945 17.2499 8.05704 17.2499 9.58203V18.207M5.74992 18.207H17.2499M5.74992 18.207H3.83325M17.2499 18.207H19.1666M10.5416 21.082H12.4583" stroke="white" stroke-width="1.5" stroke-linecap="round" stroke-linejoin="round"/>
<path d="M11.4998 3.83268C12.0291 3.83268 12.4582 3.40362 12.4582 2.87435C12.4582 2.34508 12.0291 1.91602 11.4998 1.91602C10.9706 1.91602 10.5415 2.34508 10.5415 2.87435C10.5415 3.40362 10.9706 3.83268 11.4998 3.83268Z" stroke="white" stroke-width="1.5"/>
</svg>
