<svg width="17" height="17" viewBox="0 0 17 17" fill="none" xmlns="http://www.w3.org/2000/svg">
<g clip-path="url(#clip0_359_455)">
<path fill-rule="evenodd" clip-rule="evenodd" d="M14.1925 0.125092C14.5666 -0.0103979 14.9716 -0.0364491 15.36 0.0499908C15.7485 0.136431 16.1042 0.331781 16.3856 0.613151C16.6669 0.894522 16.8623 1.25026 16.9487 1.63867C17.0352 2.02709 17.0091 2.43209 16.8736 2.80623L12.6163 15.5623C12.5044 15.9024 12.3069 16.208 12.0428 16.4498C11.7787 16.6916 11.4568 16.8614 11.1082 16.9429C10.76 17.0282 10.3956 17.0213 10.0509 16.9229C9.70619 16.8245 9.39303 16.6381 9.14226 16.382L6.94076 14.195L4.64576 15.3802C4.52867 15.4405 4.39789 15.4693 4.26629 15.4637C4.13469 15.4582 4.0068 15.4185 3.89519 15.3485C3.78359 15.2786 3.69211 15.1808 3.62975 15.0648C3.5674 14.9487 3.53631 14.8185 3.53955 14.6868L3.63669 10.8837L0.60705 7.85281C0.365264 7.61182 0.187014 7.31464 0.0882619 6.98787C-0.0104904 6.6611 -0.0266629 6.31493 0.0411925 5.98038C0.108655 5.61572 0.271994 5.2756 0.514425 4.99497C0.756855 4.71434 1.06963 4.50332 1.42062 4.38359L1.42669 4.38116L14.1925 0.125092ZM15.0303 1.53002C14.9141 1.50405 14.7927 1.51509 14.6831 1.56159L1.90876 5.82009C1.81237 5.85325 1.72662 5.91162 1.66042 5.98914C1.59423 6.06665 1.55 6.16048 1.53234 6.26088L1.52869 6.27788C1.50986 6.36711 1.51367 6.45963 1.53975 6.54701C1.56584 6.6344 1.61338 6.71386 1.67805 6.77816L4.04591 9.14359L11.7323 4.07152C11.8594 3.98823 12.0131 3.95562 12.1631 3.98014C12.313 4.00465 12.4484 4.0845 12.5423 4.20392C12.6363 4.32335 12.682 4.47366 12.6705 4.62517C12.6591 4.77669 12.5912 4.91839 12.4803 5.02231L5.13026 11.9L5.09019 13.4422L6.73555 12.5922C6.87819 12.5181 7.04064 12.4913 7.19951 12.5155C7.35837 12.5398 7.50545 12.6138 7.61955 12.7269L10.2157 15.3097L10.223 15.317C10.2897 15.3861 10.3734 15.4364 10.4657 15.4628C10.558 15.4893 10.6556 15.4909 10.7488 15.4676L10.7585 15.4652C10.8545 15.4432 10.9432 15.3968 11.016 15.3304C11.0888 15.264 11.1431 15.1799 11.1738 15.0863V15.0839L15.4371 2.31445L15.4456 2.29016C15.4747 2.21321 15.4868 2.13088 15.4812 2.04881C15.4755 1.96674 15.4521 1.88686 15.4126 1.81467C15.3732 1.74247 15.3186 1.67965 15.2526 1.63052C15.1866 1.58139 15.1108 1.54711 15.0303 1.53002Z" fill="white"/>
</g>
<defs>
<clipPath id="clip0_359_455">
<rect width="17" height="17" fill="white"/>
</clipPath>
</defs>
</svg>
