<svg width="182" height="131" viewBox="0 0 182 131" fill="none" xmlns="http://www.w3.org/2000/svg">
<path d="M181.599 0.554688L181.618 4.7249C181.339 12.4352 181.543 21.1569 181.564 28.9554L181.602 68.0325L181.679 104.994C181.677 110.012 181.332 116.201 181.5 121.053C181.47 123.453 181.413 125.725 180.971 128.093C180.109 128.282 179.25 128.47 178.394 128.687L179.786 129.293L179.912 129.803C176.151 131.469 133.961 130.349 127.337 130.349L56.3617 130.285C50.8502 130.289 33.723 131.553 29.5227 130.473L27.9767 130.112L23.2589 130.168C22.6848 130.59 21.607 130.73 20.9004 130.758C19.2718 130.83 18.8157 130.24 17.6905 129.237L17.212 129.53C15.391 129.418 13.5379 129.45 11.845 128.711C11.6636 128.679 11.4817 128.651 11.3011 128.615C10.069 128.366 8.68526 127.84 8.002 126.745L8.43074 125.809L9.28622 126.873C9.29104 126.781 9.29224 126.692 9.30107 126.6C9.41629 125.416 9.39261 125.179 10.3436 124.433C10.2505 124.368 10.1497 124.312 10.0634 124.24C8.89241 123.237 8.88718 121.567 8.73905 120.15L10.0578 120.447C10.0863 119.287 9.88559 118.488 9.50863 117.397C9.31834 116.197 9.54274 115 9.71858 113.808C9.16539 113.182 8.52468 112.857 7.80891 112.444L4.60016 112.841C3.61581 112.231 3.07065 111.268 2.42593 110.337L2.15255 109.899L2.25732 108.635L0 105.773C2.53231 104.284 6.23163 105.396 7.11802 104.669C6.56483 103.863 6.01044 103.056 5.49097 102.225L6.25451 100.684L6.73585 99.9292L7.51987 99.8288C7.72099 100.792 7.82857 102.213 8.67683 102.835C8.76033 102.899 8.85949 102.931 8.95102 102.984C10.9871 102.39 10.9972 103.341 12.8699 103.598L13.5945 102.606L14.9325 102.498L15.3769 102.394C15.7716 103.353 15.7483 104.152 15.8326 105.159C15.8896 105.841 15.8462 105.588 16.2272 106.251L18.992 106.311C19.9699 105.44 19.8595 104.408 20.0779 103.14C20.0758 104.83 19.9305 106.648 20.1806 108.314C20.2505 107.676 20.3432 107.523 20.5789 106.977C20.6307 106.857 20.7202 106.207 20.7419 106.062C21.338 107.595 20.2376 109.273 20.9831 110.798L21.5857 110.778C21.7097 109.614 21.7768 108.482 21.79 107.31C22.5704 107.732 22.501 107.88 22.8759 108.643C22.7932 109.654 22.6082 110.305 22.1774 111.22L22.3312 111.85C23.772 112.335 25.389 112.111 26.8888 112.05C25.678 112.327 24.7691 112.508 23.774 113.311C22.7194 115.302 22.7013 116.281 23.3392 118.416C24.1184 118.765 24.6054 118.669 25.4355 118.557L25.6359 118.207C35.953 117.312 46.4327 117.537 56.79 117.77L57.9558 117.874L58.5459 117.361C61.3227 117.393 63.4584 119.231 65.9694 119.191L72.4491 119.303L81.2255 119.279C83.1577 119.367 86.6342 119.917 88.3905 119.119C89.3821 118.669 89.3227 118.264 89.6137 117.284C90.4736 117.501 91.1657 117.658 91.9537 118.087C93.1364 117.754 93.7454 117.397 94.9361 117.766L95.9385 119.107L96.7607 118.428L97.3564 117.866C98.9971 117.537 100.51 117.682 102.162 117.802L102.144 116.498L102.109 112.091C102.23 111.561 102.596 110.951 102.822 110.445L103.452 109.65C103.458 108.322 103.387 107.266 104.036 106.078C102.158 105.243 99.9638 105.821 98.1003 106.492L98.0942 105.645C97.8514 96.9751 97.7875 88.2976 97.9027 79.624C101.437 79.5879 104.323 79.5277 107.872 79.2227C111.889 79.2227 118.309 79.4153 122.145 79.1424L134.787 79.5237L134.896 78.8775L134.898 78.1269C135.493 72.0743 134.257 45.7888 135.393 42.3892L137.636 41.7992C141.318 42.4935 160.147 41.7911 164.555 41.5824L165.003 41.6747C165.739 30.89 164.633 19.0898 165.063 8.39737C164.95 7.2896 164.962 7.28961 164.562 6.2581C162.394 5.00583 154.712 5.21856 151.334 4.65263L150.993 4.59242C158.696 4.74092 172.128 3.65322 180.337 3.09131C181.115 3.03913 181.307 1.526 181.599 0.554688Z" fill="#A19789"/>
<path d="M134.896 78.8789L136.363 79.9225L137.022 79.9064C146.386 81.0984 155.902 79.8381 165.282 80.7533L165.391 80.5124C165.777 81.4677 165.737 81.6724 166.745 82.0657C167.588 82.3949 168.565 82.443 169.46 82.5434C171.413 82.8605 173.306 83.1454 175.291 83.2056C175.269 94.484 175.695 105.754 175.069 117.029C175.14 119.293 175.059 121.456 174.847 123.712C161.738 123.198 148.601 124.073 135.512 123.282C135.398 122.315 135.624 121.404 135.285 120.448C135.072 119.846 134.352 119.798 133.8 119.586L134.029 119.068C133.49 118.048 132.902 117.988 131.875 117.515C130.396 117.511 129.149 117.422 127.798 118.084L127.415 118.554L126.837 119.501C124.206 120.011 105.336 119.762 102.909 119.321L102.302 119.18L102.163 117.803L102.144 116.499L102.109 112.092C102.23 111.562 102.596 110.952 102.822 110.446L103.452 109.652C103.458 108.323 103.387 107.268 104.036 106.08C102.158 105.245 99.9638 105.823 98.1003 106.493L98.0943 105.646C97.8514 96.9765 97.7876 88.299 97.9028 79.6254C101.437 79.5893 104.323 79.5291 107.872 79.2241C111.889 79.2241 118.309 79.4167 122.145 79.1438L134.787 79.5251L134.896 78.8789Z" fill="#EAE8E1"/>
<path d="M134.896 78.8789L136.363 79.9225C135.908 86.3965 136.145 93.011 136.178 99.5012C136.337 100.826 136.522 102.13 136.501 103.467C136.487 104.35 136.705 104.763 137.147 105.518C137.979 105.895 138.541 105.803 139.433 105.71C140.195 105.638 140.939 105.486 141.692 105.349L144.19 105.12L144.398 106.252L143.718 107.063C143.646 108.363 143.52 109.684 143.518 110.984C143.642 111.763 143.705 111.474 143.588 111.859C143.639 113.144 143.905 114.661 143.151 115.757L140.238 116.423L138.235 117.141L138.144 118.474C136.895 117.944 136.757 117.759 135.394 118.117L133.942 118.036C133.163 117.579 132.765 117.607 131.875 117.515C130.396 117.511 129.149 117.422 127.798 118.084L127.414 118.554C127.416 118.044 127.518 117.555 127.6 117.053L127.215 117.077L126.148 116.916C125.527 116.471 124.828 116.126 124.161 115.753C123.751 114.544 123.772 113.276 123.711 112.012C123.723 110.141 123.985 108.444 124.335 106.617C124.818 106.754 125.309 106.858 125.763 107.075L126.442 105.827L128.89 106.047C129.368 106.489 129.133 106.324 129.697 106.645C131.027 107.404 132.017 108.163 133.105 109.238C132.77 109.158 132.953 109.226 132.542 108.961C131.735 108.452 131.085 108.022 130.144 107.777C129.931 108.624 129.892 109.046 130.129 109.889C131.325 110.627 132.998 110.326 134.357 110.27C135.295 102.993 135.775 86.533 134.787 79.5251L134.896 78.8789Z" fill="#AFADA8"/>
<path d="M141.692 105.348L144.19 105.119L144.398 106.251L143.718 107.062C143.646 108.362 143.52 109.683 143.518 110.983C143.642 111.762 143.705 111.473 143.588 111.858C143.639 113.142 143.905 114.66 143.151 115.755L140.238 116.422L138.235 117.14C137.737 115.635 137.695 113.793 137.498 112.211C138.076 111.802 137.967 111.489 138.11 110.819L139.028 110.325C139.282 109.566 139.485 108.788 139.703 108.017C139.56 107.262 139.516 106.472 139.432 105.709C140.195 105.637 140.939 105.484 141.692 105.348Z" fill="#CEB08B"/>
<path d="M138.11 110.82L139.028 110.326C139.974 110.78 140.137 110.78 140.622 111.691C140.524 112.911 140.507 114.079 140.569 115.303L140.238 116.423L138.235 117.141C137.737 115.636 137.695 113.794 137.498 112.213C138.076 111.803 137.967 111.49 138.11 110.82Z" fill="#B89C7A"/>
<path d="M143.518 110.984C143.642 111.763 143.705 111.474 143.588 111.859C143.639 113.144 143.905 114.661 143.151 115.757L140.238 116.423L140.569 115.303L140.903 113.188C141.295 112.626 141.597 112.437 142.22 112.192C143.093 111.847 143.021 111.731 143.518 110.984Z" fill="#C6A883"/>
<path d="M141.692 105.348L144.191 105.119L144.398 106.251L143.718 107.062C142.345 107.616 141.178 107.885 139.704 108.017C139.56 107.262 139.516 106.472 139.433 105.709C140.195 105.637 140.939 105.484 141.692 105.348Z" fill="#AE977C"/>
<path d="M126.442 105.826L128.89 106.047L129.025 108.772C129.068 109.599 129.155 110.177 129.743 110.799C130.076 111.152 130.586 111.433 130.967 111.714C131.007 111.746 131.036 111.786 131.07 111.823C130.028 112.453 129.196 112.698 128.771 113.926C128.342 115.162 128.633 116.021 127.6 117.052L127.215 117.077L126.148 116.916C125.527 116.47 124.828 116.125 124.161 115.752C123.751 114.544 123.772 113.276 123.711 112.011C123.723 110.141 123.985 108.443 124.335 106.617C124.818 106.753 125.309 106.858 125.763 107.074L126.442 105.826Z" fill="#C6A883"/>
<path d="M126.442 105.826L128.89 106.047L129.025 108.772C129.068 109.599 129.155 110.177 129.743 110.799C130.076 111.152 130.586 111.433 130.967 111.714C131.007 111.746 131.036 111.786 131.07 111.823C130.028 112.453 129.196 112.698 128.771 113.926C128.342 115.162 128.633 116.021 127.6 117.052L127.215 117.077C126.135 114.038 128.195 110.293 126.28 107.52L125.763 107.074L126.442 105.826Z" fill="#AE977C"/>
<path d="M131.071 111.822C131.264 111.886 131.456 111.951 131.65 112.007C132.3 112.204 132.903 112.324 133.571 112.424C134.327 113.223 134.493 113.303 134.425 114.467C134.354 115.671 133.956 116.811 133.942 118.035C133.163 117.578 132.765 117.606 131.875 117.514C130.396 117.51 129.149 117.421 127.798 118.084L127.415 118.553C127.416 118.043 127.518 117.554 127.6 117.052C128.633 116.021 128.342 115.162 128.771 113.925C129.196 112.697 130.028 112.452 131.071 111.822Z" fill="#BDA88D"/>
<path d="M136.178 99.5C136.337 100.825 136.522 102.129 136.501 103.466C136.487 104.349 136.705 104.762 137.147 105.516C137.978 105.894 138.54 105.801 139.433 105.709C139.516 106.472 139.56 107.262 139.703 108.017C139.485 108.788 139.282 109.566 139.028 110.325L138.111 110.819L137.112 110.718C135.595 108.354 136.083 102.338 136.178 99.5Z" fill="#C4BFBB"/>
<path d="M137.499 112.211C137.695 113.792 137.737 115.635 138.235 117.14L138.144 118.472C136.895 117.942 136.757 117.758 135.395 118.115C136.147 115.887 136.001 114.214 137.499 112.211Z" fill="#C4BFBB"/>
<path d="M111.711 109.116C112.025 108.193 112.302 107.651 112.947 106.921C114.72 106.146 116.808 106.495 118.704 106.592C120.611 106.712 122.423 106.776 124.335 106.616C123.985 108.442 123.723 110.14 123.711 112.01C123.772 113.275 123.751 114.543 124.161 115.751C124.828 116.124 125.527 116.469 126.148 116.915L127.215 117.075L127.6 117.051C127.518 117.553 127.416 118.043 127.415 118.553L126.837 119.5C124.206 120.009 105.336 119.761 102.909 119.319L102.302 119.179L102.163 117.802L102.144 116.498L102.462 116.594L103.445 116.726C104.439 115.944 105.24 115.422 106.43 114.98C107.723 113.66 107.768 111.557 109.55 110.798L110.207 108.888C110.7 108.98 111.209 109.128 111.711 109.116Z" fill="#DEBE91"/>
<path d="M118.704 106.592C120.611 106.712 122.423 106.776 124.335 106.616C123.985 108.442 123.723 110.14 123.711 112.01L120.784 111.195L119.351 110.754C118.482 109.353 118.709 108.193 118.704 106.592Z" fill="#CEB08B"/>
<path d="M115.759 110.529C116.485 110.762 116.528 110.666 117.01 111.316C118.483 111.705 119.319 111.573 120.784 111.196L123.711 112.01C123.772 113.275 123.751 114.543 124.161 115.751C124.828 116.124 125.527 116.469 126.148 116.915C125.545 117.264 124.951 117.529 124.315 117.81C122.884 117.401 123.024 116.193 121.631 115.478L120.981 115.767C120.759 116.622 120.602 117.361 120.131 118.115C119.399 116.883 119.668 115.691 118.51 114.776C117.762 115.201 117.735 116.939 117.382 117.818C116.212 117.204 117.092 112.821 115.703 110.951L115.759 110.529Z" fill="#C6A883"/>
<path d="M102.462 116.594L103.445 116.726C104.439 115.944 105.24 115.422 106.43 114.98C107.016 116.783 107.674 116.887 108.662 118.328C107.026 118.412 104.07 118.011 102.987 119.203C102.955 119.235 102.935 119.279 102.909 119.319L102.302 119.179L102.163 117.802L102.144 116.498L102.462 116.594Z" fill="#E0B775"/>
<path d="M110.207 108.889C110.7 108.981 111.209 109.13 111.711 109.117L111.741 111.052C111.475 113.761 110.885 116.218 110.112 118.823C109.817 116.137 109.586 113.5 109.55 110.799L110.207 108.889Z" fill="#E0B775"/>
<path d="M113.732 111.043C113.666 109.719 114.327 107.764 115.051 106.645L115.636 106.825L115.922 107.632C115.753 108.463 115.56 109.237 115.669 110.088C115.689 110.237 115.73 110.385 115.759 110.53L115.703 110.951C115.316 112.769 115.133 114.937 114.379 116.623C114.137 114.788 114.146 112.834 113.732 111.043Z" fill="#E0B775"/>
<path d="M113.556 102.446C113.674 102.928 113.62 103.45 114.111 103.683C115.344 104.273 118.295 103.952 119.549 103.438C119.907 102.747 119.951 102.679 119.96 101.969C120.893 102.069 121.194 102.611 121.736 103.325C122.001 103.675 122.243 104.044 122.484 104.409C123.053 104.257 123.48 104.088 123.989 103.791C125.635 104.473 127.377 105.099 128.89 106.047L126.442 105.826L125.763 107.074C125.309 106.857 124.818 106.753 124.335 106.617C122.423 106.777 120.611 106.713 118.704 106.593C116.808 106.496 114.72 106.147 112.947 106.922C112.302 107.652 112.025 108.194 111.711 109.117C111.209 109.129 110.7 108.981 110.207 108.888L109.55 110.799C107.768 111.557 107.723 113.661 106.43 114.981C105.24 115.423 104.439 115.944 103.445 116.727L102.462 116.595L102.144 116.498L102.109 112.091C102.23 111.561 102.596 110.951 102.822 110.446L103.452 109.651C103.458 108.322 103.387 107.267 104.036 106.079L104.33 106.087C105.204 105.384 106.328 104.782 107.326 104.269L107.814 104.024C109.879 102.964 111.275 102.611 113.556 102.446Z" fill="#B89C7A"/>
<path d="M113.555 102.446C113.673 102.928 113.62 103.45 114.111 103.683C115.344 104.273 118.295 103.952 119.549 103.438C119.907 102.747 119.951 102.679 119.96 101.969C120.893 102.069 121.194 102.611 121.736 103.325C122.001 103.675 122.243 104.044 122.484 104.409C123.052 104.257 123.48 104.088 123.989 103.791C125.635 104.473 127.377 105.099 128.89 106.047L126.442 105.826C119.052 103.751 111.753 105.144 104.33 106.087C105.204 105.384 106.327 104.782 107.326 104.269L107.814 104.024C109.879 102.964 111.275 102.611 113.555 102.446Z" fill="#CAC1B2"/>
<path d="M102.461 116.595C104.125 115.664 105.492 110.446 106.912 108.435C107.618 107.436 108.236 106.946 109.443 106.773C110.109 107.532 110.044 107.933 110.207 108.889L109.55 110.799C107.768 111.558 107.723 113.661 106.43 114.981C105.239 115.423 104.439 115.945 103.445 116.727L102.461 116.595Z" fill="#C6A883"/>
<path d="M104.113 101.19C108.406 100.657 112.99 99.7656 117.311 100.079C119.313 100.223 121.309 100.713 123.319 100.926C121.332 100.942 118.929 100.725 117.082 101.528C115.887 102.045 114.841 102.25 113.555 102.447C111.275 102.611 109.879 102.964 107.814 104.024L107.326 104.269C106.327 104.783 105.204 105.385 104.33 106.087L104.036 106.079C102.158 105.244 99.9638 105.822 98.1003 106.493L98.0942 105.646C100.693 104.867 102.209 103.025 104.113 101.19Z" fill="#CECCC0"/>
<path d="M144.19 105.12C147.623 103.507 154.868 104.001 158.56 104.639L157.724 105.092L159.113 105.502L157.165 105.967L155.65 106.172L155.237 107.067C154.007 108.034 153.44 108.548 153.244 110.194C153.219 110.394 153.21 110.599 153.193 110.804L152.187 109.937C152.241 109.03 152.457 107.858 152.034 107.027C151.773 106.509 150.716 106.288 150.187 106.084L147.823 106.092C147.145 106.156 146.453 106.389 145.791 106.553L144.398 106.252L144.19 105.12Z" fill="#B89C7A"/>
<path d="M150.187 106.084C151.966 105.979 153.914 105.686 155.65 106.172L155.237 107.067C154.007 108.034 153.44 108.548 153.244 110.194C153.219 110.394 153.21 110.599 153.193 110.804L152.187 109.937C152.241 109.03 152.457 107.858 152.034 107.027C151.773 106.509 150.715 106.288 150.187 106.084Z" fill="#C6A883"/>
<path d="M141.692 105.348C141.909 105.091 142.034 104.926 142.314 104.714C143.249 104.007 157.901 101.286 159.417 101.547C160.188 102.727 160.693 103.903 162.172 104.204C162.974 104.368 163.541 104.585 164.295 104.902L164.214 105.292C162.33 105.155 160.437 104.862 158.56 104.637C154.868 103.999 147.623 103.506 144.19 105.119L141.692 105.348Z" fill="#CAC1B2"/>
<path d="M147.823 106.09L150.187 106.082C150.715 106.287 151.773 106.508 152.034 107.025C152.457 107.856 152.241 109.028 152.187 109.935L153.193 110.802L153.485 112.528C153.483 114.334 153.418 116.144 153.288 117.946C154.609 117.938 155.876 117.666 156.962 118.46L156.51 118.91C154.106 118.862 147.24 119.492 145.309 118.436L145.427 117.77C144.13 117.284 143.819 116.987 143.151 115.755C143.905 114.659 143.639 113.142 143.588 111.858C143.705 111.472 143.642 111.761 143.518 110.983C143.52 109.682 143.646 108.362 143.718 107.061L144.398 106.251L145.791 106.552C146.453 106.387 147.145 106.154 147.823 106.09Z" fill="#C6A883"/>
<path d="M152.187 109.936L153.193 110.802L153.485 112.528C153.483 114.335 153.418 116.145 153.288 117.947L152.071 118.067C151.102 118.256 150.136 118.32 149.154 118.404L147.446 117.943C146.707 116.839 146.848 115.9 146.767 114.587C147.068 113.881 147.519 113.191 147.894 112.512C149.132 111.822 149.576 111.914 150.961 111.93C151.761 112.416 151.323 112.312 152.279 112.219L152.187 109.936Z" fill="#DEBE91"/>
<path d="M146.767 114.587C147.842 113.781 148.386 113.126 149.744 113.002C150.371 113.736 150.398 114.242 150.263 115.209C150.11 116.305 149.619 117.413 149.154 118.404L147.446 117.943C146.707 116.839 146.848 115.9 146.767 114.587Z" fill="#E0B775"/>
<path d="M152.187 109.936L153.193 110.802L153.485 112.528C153.484 114.335 153.418 116.145 153.288 117.947L152.071 118.067C152.064 118.019 152.058 117.975 152.05 117.927C151.695 115.892 151.952 114.226 152.28 112.219L152.187 109.936Z" fill="#E0B775"/>
<path d="M147.823 106.09L150.187 106.082C150.716 106.287 151.773 106.508 152.034 107.025C152.457 107.856 152.241 109.028 152.187 109.935L152.28 112.219C151.323 112.311 151.761 112.416 150.961 111.93C150.918 111.107 150.897 110.264 150.784 109.45C150.631 108.362 150.464 108.021 149.61 107.342L148.665 107.631C148.283 107.15 148.081 106.644 147.823 106.09Z" fill="#B89C7A"/>
<path d="M145.791 106.553C146.453 106.389 147.145 106.156 147.823 106.092C148.081 106.646 148.283 107.151 148.665 107.633C148.602 108.464 148.603 109.074 148.211 109.833C147.918 110.398 147.718 110.334 147.164 110.543C146.849 110.362 146.655 110.274 146.387 109.997C145.515 109.098 145.742 107.697 145.791 106.553Z" fill="#CEB08B"/>
<path d="M143.588 111.859L144.707 112.349C145.318 114.111 145.435 115.913 145.427 117.772C144.13 117.286 143.819 116.989 143.151 115.757C143.905 114.661 143.639 113.144 143.588 111.859Z" fill="#E0B775"/>
<path d="M165.282 80.7525L165.391 80.5117C165.777 81.467 165.737 81.6717 166.745 82.065C167.587 82.3941 168.565 82.4423 169.459 82.5427L169.516 99.966C169.524 102.539 169.817 105.409 169.427 107.925L169.111 107.648C169.038 107.339 168.956 107.034 168.865 106.733C168.447 105.356 167.151 101.716 165.89 101.07C165.597 102.587 165.773 104.18 164.703 105.308L164.214 105.292L164.295 104.903C165.245 96.8153 164.381 88.7397 165.282 80.7525Z" fill="#C4BFBB"/>
<path d="M157.165 105.967C158.579 106.135 158.903 106.043 159.985 107.034C160.788 108.873 159.286 112.409 161.003 113.388L161.293 113.043L161.614 113.003C162.318 113.926 162.647 114.905 163.04 115.981L161.429 115.327C161.07 115.6 160.607 115.776 160.531 116.25C160.422 116.928 160.726 117.466 160.964 118.084C161.665 118.417 162.355 118.622 163.102 118.831C160.919 119.003 158.699 118.915 156.51 118.911L156.962 118.461C155.876 117.667 154.61 117.94 153.288 117.948C153.418 116.145 153.484 114.335 153.485 112.529L153.193 110.803C153.21 110.599 153.219 110.394 153.244 110.193C153.44 108.548 154.007 108.034 155.237 107.067L155.651 106.171L157.165 105.967Z" fill="#DEBE91"/>
<path d="M157.165 105.967C158.579 106.135 158.903 106.043 159.984 107.034C160.788 108.873 159.285 112.409 161.003 113.388L161.293 113.043L161.614 113.003C162.318 113.926 162.647 114.905 163.04 115.981L161.428 115.327C161.069 115.6 160.607 115.776 160.531 116.25C160.422 116.928 160.726 117.466 160.964 118.084C161.664 118.417 162.355 118.622 163.102 118.831C160.919 119.003 158.699 118.915 156.509 118.911L156.962 118.461C157.747 118.453 158.528 118.405 159.312 118.365C160.111 117.47 159.899 116.747 159.944 115.571C159.852 114.135 159.748 112.702 159.631 111.273L159.11 111.064C157.288 109.868 156.427 108.917 155.237 107.067L155.65 106.171L157.165 105.967Z" fill="#CEB08B"/>
<path d="M155.237 107.066C156.427 108.917 157.288 109.868 159.11 111.064C157.903 111.04 156.276 111.241 155.219 110.671L155.17 111.245C154.565 111.851 154.3 112.248 153.485 112.529L153.193 110.803C153.21 110.598 153.219 110.394 153.244 110.193C153.44 108.547 154.007 108.034 155.237 107.066Z" fill="#B89C7A"/>
<path d="M155.17 111.244L155.219 110.67C156.276 111.24 157.903 111.039 159.11 111.063L159.631 111.272C159.748 112.701 159.852 114.134 159.944 115.571C158.516 113.68 156.173 113.407 155.17 111.244Z" fill="#E0B775"/>
<path d="M158.56 104.639C160.437 104.863 162.33 105.156 164.214 105.293L164.703 105.309L165.663 105.867L165.803 106.465L166.763 109.82C167.039 110.78 167.118 111.39 166.958 112.405C166.462 112.995 166.06 113.409 165.405 113.818C164.936 114.87 164.605 115.933 163.633 116.619L163.167 116.399L163.04 115.981C162.647 114.906 162.318 113.926 161.614 113.003L161.293 113.043L161.003 113.388C159.285 112.409 160.788 108.873 159.984 107.035C158.903 106.043 158.579 106.136 157.165 105.967L159.113 105.502L157.724 105.092L158.56 104.639Z" fill="#AF8D64"/>
<path d="M165.405 113.818C164.749 113.38 164.594 113.196 164.17 112.57C163.912 111.073 163.745 109.692 164.219 108.215C164.554 107.167 164.846 106.95 165.803 106.465L166.763 109.82C167.039 110.78 167.118 111.39 166.958 112.405C166.462 112.995 166.06 113.408 165.405 113.818Z" fill="#665539"/>
<path d="M164.703 105.309C165.773 104.181 165.598 102.587 165.89 101.07C167.151 101.717 168.447 105.357 168.865 106.734C168.956 107.035 169.038 107.34 169.111 107.649L169.427 107.926C169.465 110.053 170.278 115.664 169.341 117.39C166.766 117.474 165.301 117.374 163.102 118.831C162.356 118.622 161.665 118.417 160.964 118.084C160.726 117.466 160.422 116.928 160.531 116.25C160.607 115.776 161.07 115.6 161.429 115.327L163.04 115.981L163.168 116.399L163.633 116.619C164.605 115.933 164.936 114.869 165.405 113.818C166.06 113.408 166.462 112.995 166.958 112.405C167.118 111.389 167.039 110.779 166.763 109.82L165.803 106.465L165.663 105.867L164.703 105.309Z" fill="#B8A896"/>
<path d="M139.25 120.042L140.319 120.828C140.353 121.591 140.409 122.065 140.757 122.751L162.814 122.707C165.94 122.715 169.298 123.12 172.395 122.859C175.721 122.578 173.309 119.251 175.069 117.027C175.139 119.291 175.059 121.454 174.847 123.71C161.738 123.196 148.601 124.071 135.512 123.281C135.398 122.313 135.624 121.402 135.285 120.447C135.072 119.845 134.352 119.797 133.799 119.584L134.029 119.066C133.489 118.047 132.901 117.987 131.875 117.513C132.765 117.605 133.163 117.577 133.942 118.035L135.394 118.115L135.548 119.432C136.678 120.262 137.865 120.094 139.25 120.042Z" fill="#CECCC0"/>
<path d="M143.151 115.756C143.819 116.988 144.13 117.285 145.427 117.771L145.309 118.437C147.24 119.493 154.106 118.862 156.51 118.911C158.699 118.915 160.919 119.003 163.102 118.83C161.767 119.28 160.704 119.396 159.299 119.42C153.067 121.327 145.598 118.778 139.25 120.042C137.865 120.095 136.678 120.263 135.548 119.432L135.395 118.116C136.757 117.759 136.895 117.943 138.144 118.473L138.235 117.141L140.238 116.422L143.151 115.756Z" fill="#DEBE91"/>
<path d="M135.395 118.116C136.757 117.759 136.895 117.943 138.144 118.473C141.467 120.396 154.841 119.28 159.299 119.42C153.067 121.327 145.598 118.778 139.25 120.043C137.865 120.095 136.678 120.263 135.548 119.432L135.395 118.116Z" fill="#CECCC0"/>
<path d="M135.393 42.3896C139.318 42.4257 162.361 42.0444 164.606 42.9715C166.578 44.1716 167.109 42.5019 169.02 43.4933L169.383 44.5048C170.094 55.2373 169.456 70.3769 169.575 81.4105C168.224 80.7883 166.853 80.684 165.391 80.5114L165.282 80.7522C155.902 79.8371 146.386 81.0974 137.022 79.9053L136.363 79.9214L134.896 78.8779L134.897 78.1273C135.493 72.0747 134.257 45.7891 135.393 42.3896Z" fill="#EAE8E1"/>
<path d="M164.606 42.9727C166.578 44.1727 167.109 42.5031 169.02 43.4945L169.383 44.5059C170.094 55.2385 169.456 70.378 169.575 81.4116C168.224 80.7895 166.853 80.6851 165.391 80.5125L165.282 80.7533C155.902 79.8382 146.386 81.0985 137.022 79.9065C140.179 79.2723 159.951 79.4529 164.7 79.4289C164.5 67.0346 165.298 55.8646 164.606 42.9727Z" fill="#C4BFBB"/>
<path d="M176.538 4.39648C178.492 4.76173 179.651 4.71359 181.618 4.72563C181.339 12.4359 181.543 21.1576 181.564 28.9562L181.602 68.0333L181.68 104.995C181.677 110.012 181.332 116.201 181.5 121.054C181.47 123.454 181.413 125.726 180.971 128.094C180.109 128.283 179.25 128.471 178.394 128.688C172.983 129.113 167.411 128.917 161.977 128.921L134.321 128.933C104.03 129.145 73.737 129.153 43.4452 128.957C41.1915 128.656 38.7479 128.772 36.4657 128.736C35.3802 127.873 33.8547 127.046 33.552 125.686L34.4011 124.887C57.6387 124.698 80.8775 124.682 104.115 124.831C128.358 124.75 152.601 124.803 176.843 124.987C175.983 85.28 176.73 44.2522 176.538 4.39648Z" fill="#E4E1DF"/>
<path d="M165.063 8.39861C165.839 5.42448 166.648 5.19173 169.351 5.17969L175.169 5.28802L175.379 29.9721C175.384 33.183 175.524 39.5929 175.133 42.4707C173.06 44.1283 171.731 42.7958 169.555 42.852C167.934 41.7964 166.866 41.5957 165.003 41.676C165.739 30.8912 164.633 19.091 165.063 8.39861Z" fill="#EAE8E1"/>
<path d="M165.063 8.39861C165.839 5.42448 166.648 5.19173 169.351 5.17969C169.489 17.7385 169.557 30.2932 169.555 42.852C167.934 41.7964 166.866 41.5957 165.003 41.676C165.739 30.8912 164.633 19.091 165.063 8.39861Z" fill="#C4BFBB"/>
<path d="M89.6137 117.285C90.4736 117.502 91.1657 117.658 91.9537 118.088C93.1364 117.755 93.7454 117.398 94.936 117.767L95.9385 119.107L96.7606 118.429L97.3564 117.867C98.9971 117.538 100.51 117.683 102.162 117.803L102.302 119.18L102.909 119.32C105.336 119.762 124.206 120.01 126.837 119.501L127.415 118.553L127.798 118.084C129.149 117.422 130.396 117.51 131.875 117.514C132.901 117.988 133.49 118.048 134.029 119.067L133.8 119.585C134.352 119.798 135.072 119.846 135.285 120.448C135.624 121.403 135.398 122.314 135.512 123.282C133.244 123.41 131.036 123.422 128.767 123.318C118.838 123.9 108.645 123.35 98.6976 123.314C85.1103 123.27 71.5214 123.623 57.9345 123.378L56.6226 123.145C56.3375 121.339 56.6061 119.577 56.79 117.771L57.9557 117.875L58.5459 117.361C61.3227 117.394 63.4584 119.232 65.9694 119.192L72.4491 119.304L81.2255 119.28C83.1576 119.368 86.6342 119.918 88.3905 119.119C89.3821 118.67 89.3226 118.264 89.6137 117.285Z" fill="#CECCC0"/>
<path d="M96.7605 118.428L97.3562 117.866C98.9969 117.537 100.51 117.681 102.162 117.802L102.302 119.179C102.104 119.68 101.938 119.905 101.604 120.31C99.728 120.571 98.673 120.415 96.9496 119.656L96.7605 118.428Z" fill="#EAE8E1"/>
<path d="M91.9536 118.087C93.1362 117.754 93.7452 117.397 94.9359 117.766L95.9383 119.106C95.6023 119.56 95.2466 119.777 94.7906 120.102C93.2057 120.254 91.6645 120.547 90.123 120.042L89.9082 119.444C90.5204 118.669 91.074 118.472 91.9536 118.087Z" fill="#EAE8E1"/>
<path d="M169.383 44.5048C170.805 43.104 173.39 43.5856 175.391 43.6779L175.508 68.7955C175.506 71.8258 175.654 78.946 175.215 81.5951C173.689 82.9878 171.143 82.5865 169.575 81.4105C169.456 70.3769 170.094 55.2373 169.383 44.5048Z" fill="#EAE8E1"/>
<path d="M25.4355 118.557L25.6359 118.208C35.953 117.313 46.4327 117.538 56.79 117.771C56.6061 119.577 56.3376 121.339 56.6226 123.145C54.2505 123.751 36.3946 123.751 33.717 122.944C31.0357 122.137 28.0337 119.834 25.4355 118.557Z" fill="#E4E1DF"/>
<path d="M43.4451 128.957C39.8236 129.446 33.0453 129.956 29.6506 128.648L29.6731 128.415C29.8341 128.282 30.474 127.76 30.5888 127.616C31.3781 126.609 30.0517 126.609 29.9565 125.537C31.3801 124.927 32.8746 124.963 34.4009 124.887L33.5519 125.685C33.8546 127.046 35.3801 127.873 36.4656 128.736C38.7478 128.772 41.1914 128.656 43.4451 128.957Z" fill="#CECCC0"/>
<path d="M20.0777 103.141C20.0757 104.83 19.9304 106.649 20.1805 108.314C20.0613 109.623 20.0653 110.835 19.3351 111.971C18.6783 111.429 18.2913 110.891 17.826 110.185C17.254 110.217 16.6887 110.257 16.1155 110.253C16.254 108.744 16.9312 107.728 16.2271 106.251L18.9918 106.311C19.9698 105.44 19.8594 104.409 20.0777 103.141Z" fill="#AFADA8"/>
<path d="M34.7502 79.0585C37.6253 79.0665 56.6887 78.91 58.6839 79.3595C63.431 78.8779 93.2202 78.7013 96.7814 79.5923C99.3976 78.8698 105.05 79.1308 107.872 79.2231C104.323 79.5281 101.437 79.5883 97.9026 79.6244C97.7874 88.298 97.8513 96.9755 98.0941 105.645L98.1002 106.492C99.9637 105.822 102.158 105.244 104.036 106.079C103.387 107.267 103.457 108.322 103.452 109.651L102.822 110.445C102.596 110.951 102.23 111.561 102.109 112.091L102.144 116.498L102.162 117.802C100.51 117.682 98.997 117.538 97.3563 117.867L96.7605 118.429L95.9384 119.107L94.936 117.766C93.7453 117.397 93.1363 117.754 91.9536 118.087C91.1656 117.658 90.4735 117.501 89.6136 117.285C89.3226 118.264 89.382 118.669 88.3904 119.119C86.6341 119.918 83.1576 119.368 81.2254 119.279L72.449 119.304L65.9693 119.191C63.4583 119.231 61.3226 117.393 58.5458 117.361L57.9557 117.875L56.7899 117.77C46.4326 117.538 35.9529 117.313 25.6358 118.208L25.4354 118.557C24.6052 118.669 24.1183 118.766 23.3391 118.417C22.7012 116.281 22.7193 115.302 23.7739 113.311C24.769 112.508 25.6779 112.328 26.8887 112.051L27.0063 111.706C26.2793 111.698 25.4286 111.866 24.8449 111.425C26.663 111.357 28.4579 111.268 30.268 111.068C28.938 111.027 27.7983 111.116 26.8602 110.064C21.8425 104.429 22.0115 86.6885 22.1348 79.1347L34.7502 79.0585Z" fill="#CCCAC8"/>
<path d="M27.7563 102.546C26.7583 100.399 26.8049 93.5676 26.725 90.9667C26.2316 90.8022 25.7756 90.7098 25.2633 90.6295L25.0309 89.6944L25.8197 89.1365C25.568 87.5631 24.4644 85.8091 24.0196 83.0798L25.118 82.4015C24.7386 81.37 24.1955 81.3339 23.0337 80.5753C23.1047 80.495 23.1646 80.4027 23.2465 80.3345C25.4484 78.4601 53.6812 79.6321 58.684 79.3592C58.8992 84.4525 58.79 106.006 57.4728 109.642C55.1445 110.594 31.8912 110.662 28.7912 109.59C27.8025 108.085 28.228 104.621 27.7563 102.546Z" fill="#E4E1DF"/>
<path d="M59.7795 79.5293L96.7814 79.5935C96.4197 85.2648 96.9986 104.109 95.706 108.588C94.7846 107.095 95.3435 106.975 93.8886 105.237C92.103 104.318 90.8625 104.735 88.6959 104.563C88.2568 103.214 88.115 102.303 87.1002 101.332C82.2467 99.9067 75.3114 99.425 70.2106 101.211C69.2411 101.548 69.0629 103.419 68.7156 104.711C67.3804 105.229 66.6076 105.02 65.4792 105.835C64.6654 106.425 64.3387 106.666 63.6181 107.36C63.6779 108.087 63.7084 108.757 63.7369 109.483C62.7036 110.122 61.5422 109.873 60.1492 109.869C59.8108 99.7582 59.6875 89.6438 59.7795 79.5293Z" fill="#EAE8E1"/>
<path d="M30.2681 111.067C34.4239 110.585 38.7631 110.85 42.9461 110.83C47.9012 110.814 52.855 110.654 57.8012 110.353C58.1561 109.795 58.2637 109.538 58.4246 108.924L59.4748 110.59C61.0553 110.662 62.6575 110.738 64.2175 111.003L64.1753 111.155C63.5656 111.44 63.299 111.609 62.7815 112.079C62.6418 112.099 62.5017 112.119 62.3624 112.139C60.9951 112.356 60.3163 112.6 59.2215 113.443C58.5736 114.623 58.4668 116.028 58.5459 117.361L57.9558 117.874L56.79 117.77C46.4327 117.537 35.953 117.312 25.6358 118.207L25.4355 118.557C24.6053 118.669 24.1184 118.765 23.3392 118.416C22.7013 116.281 22.7193 115.302 23.7739 113.311C24.7691 112.508 25.678 112.327 26.8887 112.05L27.0064 111.705C26.2794 111.697 25.4287 111.866 24.845 111.424C26.6631 111.356 28.458 111.268 30.2681 111.067Z" fill="#C4BFBB"/>
<path d="M73.7201 109.343L74.136 108.873C75.1778 109.752 75.629 110.784 75.9582 112.084L76.3496 112.662L77.5804 112.61C78.7229 114.271 77.8956 115.536 79.411 117.193L79.8434 116.989L80.1103 115.419C80.1926 115.853 80.1541 116.226 80.1288 116.664L80.6483 116.868L80.8466 117.671C79.4363 117.799 78.1481 118.538 76.7217 118.325L76.1216 116.88C75.6302 117.318 74.6796 118.084 74.0212 118.217C73.0549 118.41 72.798 118.273 72.0943 117.719C71.1826 114.982 73.2147 112.513 73.6382 109.901C73.6683 109.716 73.6928 109.531 73.7201 109.343Z" fill="#DEBE91"/>
<path d="M64.2174 111.004L64.9914 110.799L66.771 111.806C66.1343 113.147 66.3515 113.733 66.5084 115.178C65.5598 116.494 65.2178 116.679 63.7344 117.369L63.8059 118.116C64.4835 118.457 65.4165 118.706 65.9693 119.191C63.4582 119.232 61.3226 117.393 58.5458 117.361C58.4667 116.029 58.5735 114.624 59.2214 113.444C60.3161 112.601 60.995 112.356 62.3623 112.139C62.5016 112.119 62.6417 112.099 62.7814 112.079C63.2989 111.61 63.5654 111.441 64.1752 111.156L64.2174 111.004Z" fill="#C4BFBB"/>
<path d="M64.2175 111.004L64.9914 110.799L66.771 111.806C66.1344 113.147 66.3515 113.733 66.5085 115.178C65.5599 116.494 65.2179 116.679 63.7345 117.369C63.0505 115.234 63.6787 113.255 64.1753 111.156L64.2175 111.004Z" fill="#CEB08B"/>
<path d="M66.5086 115.178C67.5692 114.677 68.3544 114.448 69.5158 114.275L70.5042 114.629C70.9715 115.768 71.0269 116.579 71.0481 117.795L71.0618 118.353L71.065 118.69L72.4492 119.305L65.9695 119.192C65.4167 118.706 64.4837 118.458 63.8061 118.117L63.7346 117.37C65.218 116.68 65.56 116.495 66.5086 115.178Z" fill="#DEBE91"/>
<path d="M68.2524 107.764C69.4672 107.138 70.5122 106.612 71.9285 106.873C72.6475 107.002 72.3347 107.018 73.1131 106.925C73.2785 106.905 73.4423 106.873 73.6069 106.845C73.4371 107.612 73.2484 108.334 73.2123 109.121C73.022 109.899 72.7037 110.534 72.3532 111.252L71.8028 111.152C71.0252 109.859 71.4238 109.233 71.7069 107.776L71.1842 107.347L68.4315 108.222L68.2524 107.764Z" fill="#CEB08B"/>
<path d="M73.6068 106.846C74.6433 106.284 74.7441 106.34 75.9259 106.5L77.3141 107.05C78.4418 107.054 78.9994 106.825 79.85 107.604C79.6268 108.808 79.4554 109.061 80.003 110.193C81.9472 111.273 84.1491 109.567 85.3466 112.356C85.0339 114.191 84.6541 115.957 84.7983 117.823C83.7722 118.525 82.8597 118.469 81.6686 118.497L80.8464 117.67L80.6481 116.868L80.1287 116.663C80.1539 116.225 80.1925 115.852 80.1102 115.419L79.8432 116.988L79.4109 117.193C77.8954 115.535 78.7228 114.271 77.5803 112.609L76.3495 112.661L75.9581 112.083C75.6289 110.783 75.1776 109.751 74.1359 108.872L73.72 109.342L73.2122 109.121C73.2483 108.335 73.437 107.612 73.6068 106.846Z" fill="#C6A883"/>
<path d="M89.6138 117.285C89.7113 116.743 89.8277 116.193 89.9124 115.647C90.1236 114.287 90.5271 113.163 91.7996 112.428C92.8864 111.806 94.9181 111.666 96.0871 112.071C96.5351 112.428 96.7559 112.637 97.3187 112.785C98.6623 111.714 100.476 112.055 102.109 112.091L102.144 116.498L102.163 117.803C100.51 117.682 98.9971 117.538 97.3564 117.867L96.7607 118.429L95.9385 119.107L94.9361 117.766C93.7454 117.397 93.1364 117.754 91.9538 118.087C91.1657 117.658 90.4737 117.501 89.6138 117.285Z" fill="#C4BFBB"/>
<path d="M86.7091 110.936C87.2591 109.623 87.2723 108.355 88.3879 107.432L89.6252 107.628C89.6392 110.823 88.4855 114.167 88.9046 117.257C89.1398 117.281 89.3839 117.345 89.6135 117.285C89.3225 118.265 89.3819 118.67 88.3903 119.12C86.634 119.918 83.1575 119.368 81.2253 119.28L81.6685 118.497C82.8596 118.469 83.7721 118.525 84.7982 117.823C84.6541 115.957 85.0339 114.191 85.3466 112.356L85.8885 111.188L86.7091 110.936Z" fill="#C6A883"/>
<path d="M85.8887 111.188L86.7092 110.936C86.4125 112.417 85.3664 114.572 85.8806 115.961C87.0838 116.133 87.3318 116.157 88.2688 116.908L88.3668 117.839C87.877 118.341 87.8862 118.566 87.1283 118.578C86.213 118.598 85.5575 118.305 84.7983 117.823C84.6542 115.957 85.034 114.191 85.3467 112.356L85.8887 111.188Z" fill="#E0B775"/>
<path d="M75.926 106.501C78.0167 105.766 82.7438 105.561 84.7638 106.452C85.588 106.818 85.647 107.215 85.9674 107.986L85.8887 111.189L85.3467 112.357C84.1492 109.567 81.9473 111.273 80.0031 110.193C79.4555 109.061 79.6269 108.808 79.8501 107.604C78.9995 106.826 78.4419 107.054 77.3142 107.05L75.926 106.501Z" fill="#CEB08B"/>
<path d="M98.1001 106.492C99.9636 105.821 102.158 105.243 104.036 106.078C103.387 107.266 103.457 108.322 103.452 109.65L102.822 110.445C101.624 110.722 99.8263 111.039 98.6935 110.505C97.9287 109.185 98.1206 107.989 98.1001 106.492Z" fill="#CAC1B2"/>
<path d="M90.1941 105.739C92.5233 105.686 93.3129 106.525 95.0235 108.143C95.5036 108.596 95.7585 109.018 96.0034 109.628C95.6947 110.378 95.9123 110.314 95.2274 110.547C94.2154 110.888 92.7509 110.924 91.7625 110.475C91.4 110.31 91.3872 110.286 91.2796 109.921C90.9958 108.962 91.1331 107.818 91.1564 106.822L90.1941 105.739Z" fill="#CAC1B2"/>
<path d="M85.9674 107.985L85.4824 105.846L85.91 105.24C87.3419 105.103 88.7895 105.481 90.1942 105.738L91.1564 106.821L90.5675 107.463L89.8746 107.459L89.6253 107.628L88.3881 107.431C87.2725 108.354 87.2592 109.623 86.7092 110.935L85.8887 111.188L85.9674 107.985Z" fill="#AE977C"/>
<path d="M65.3989 106.609C67.0485 105.693 70.916 104.405 72.7779 104.911C73.2648 105.043 73.2484 105.063 73.6073 105.3C73.6297 105.826 73.6619 106.32 73.6069 106.845C73.4423 106.873 73.2785 106.906 73.1131 106.926C72.3347 107.018 72.6474 107.002 71.9284 106.873C70.5121 106.613 69.4672 107.138 68.2524 107.765C68.0163 107.861 67.6928 108.005 67.4415 108.021C66.315 108.086 66.034 107.371 65.3989 106.609Z" fill="#B89C7A"/>
<path d="M134.99 5.78125C143.806 7.4108 154.886 5.99395 163.526 6.55586C165.034 9.40557 164.563 36.3855 164.555 41.5832C160.147 41.7919 141.318 42.4943 137.636 41.7999C136.788 41.6073 136.048 41.4106 135.211 41.1778C134.804 39.2954 134.955 32.0025 134.957 29.6425L134.99 5.78125Z" fill="#E4E1DF"/>
<path d="M6.19172 78.7015C9.41211 77.9791 12.117 75.8318 13.661 75.8438C16.824 77.8185 18.4896 76.49 21.8079 76.767C28.2415 77.3048 35.1339 76.6505 41.4755 77.4934C39.0997 77.5737 23.4237 77.7222 22.4659 78.24C24.3619 78.6333 31.3924 78.6453 34.7501 79.0588L22.1347 79.135C22.0115 86.6887 21.8424 104.429 26.8601 110.064C27.7983 111.116 28.938 111.028 30.268 111.068C28.4578 111.268 26.663 111.357 24.8448 111.425C25.4285 111.867 26.2792 111.698 27.0062 111.706L26.8886 112.051C25.3888 112.111 23.7718 112.336 22.331 111.85L22.1772 111.22C22.608 110.305 22.7931 109.655 22.8758 108.644C22.5008 107.881 22.5703 107.732 21.7899 107.311C21.7766 108.483 21.7096 109.615 21.5855 110.779L20.9829 110.799C20.2375 109.274 21.3378 107.596 20.7417 106.063C20.72 106.207 20.6305 106.857 20.5787 106.978C20.3431 107.524 20.2503 107.676 20.1805 108.314C19.9304 106.649 20.0757 104.831 20.0777 103.141C19.8593 104.409 19.9697 105.441 18.9918 106.312L16.227 106.251C15.8461 105.589 15.8894 105.842 15.8324 105.16C15.7481 104.152 15.7714 103.354 15.3768 102.394L14.9324 102.499L13.5944 102.607L12.8698 103.598C10.997 103.341 10.987 102.39 8.95085 102.984C8.85932 102.932 8.76016 102.9 8.67666 102.836C7.82841 102.214 7.72082 100.793 7.5197 99.8295C7.66904 99.2275 7.67866 98.5291 7.7453 97.911C7.36795 97.3651 7.54539 97.5457 7.08614 97.1404C6.50806 96.6346 5.9649 96.2453 5.58554 95.5549C5.19252 94.8405 5.66262 95.4466 5.08092 94.7883C4.59718 94.1822 4.23307 93.5561 3.83925 92.8939L3.17325 92.8257L2.34227 92.8979L1.91473 92.6772L1.4077 91.0476C1.52091 89.711 1.75054 89.4221 2.46712 88.3343L3.44343 87.7644C4.435 87.8728 4.84728 87.8366 5.73648 87.3751L5.14234 84.9187L4.09778 83.5179L3.26358 80.9572L1.08936 80.7365C2.88984 79.3598 4.12548 79.5886 6.19172 78.7015Z" fill="#A2A29E"/>
<path d="M17.9442 86.4925L17.7511 86.1031C16.9257 84.4174 16.0706 82.8039 16.6973 80.9295C17.5435 79.9863 17.7487 79.8217 18.9414 79.4043L19.9052 79.7414C21.4705 82.9925 20.1043 98.4893 20.0778 103.141C19.8595 104.409 19.9699 105.441 18.9919 106.312L16.2272 106.252C15.8462 105.589 15.8896 105.842 15.8326 105.16C15.7483 104.153 15.7715 103.354 15.3769 102.395L14.9325 102.499L13.5945 102.607L12.8623 100.737L13.3785 100.123C13.2083 99.9101 12.8904 99.5289 12.7796 99.2921C12.3597 98.385 12.9626 97.5301 13.3039 96.6912L13.8282 95.3426L14.0738 95.3827C14.9365 95.0376 15.0582 94.9573 15.6194 94.2188C15.5965 93.2274 15.5231 92.2441 15.7828 91.2728C15.8245 91.1202 15.8888 90.9717 15.9418 90.8192L16.3914 88.8164C16.8245 88.2946 17.5993 88.1983 18.2388 87.9895C18.3436 87.5521 18.0626 86.9259 17.9442 86.4925Z" fill="#CECCC0"/>
<path d="M157.463 0.205799C160.924 0.161648 179.521 -0.404281 181.599 0.554986C181.306 1.52629 181.114 3.03943 180.337 3.09161C172.128 3.65352 158.695 4.74122 150.992 4.59271C147.135 3.88229 139.486 5.54797 134.353 3.89434C133.379 2.94711 133.655 3.50503 133.498 2.15644C134.256 0.799816 133.751 1.38583 135.249 0.514859C142.692 0.177711 150.192 0.575056 157.463 0.205799Z" fill="#EAE8E1"/>
<path d="M41.4757 77.4942L94.5816 77.5183C103.817 77.4581 119.833 76.8761 128.316 77.5464C130.067 77.5102 133.617 77.1571 134.898 78.1284L134.896 78.8789L134.787 79.5251L122.145 79.1438C118.309 79.4167 111.889 79.2241 107.872 79.2241C105.05 79.1318 99.3977 78.8709 96.7815 79.5933C93.2203 78.7023 63.4311 78.8789 58.684 79.3605C56.6888 78.911 37.6254 79.0675 34.7503 79.0595C31.3926 78.6461 24.3621 78.6341 22.4661 78.2407C23.4239 77.7229 39.0999 77.5744 41.4757 77.4942Z" fill="#8B8986"/>
<path d="M128.316 77.5451C130.067 77.509 133.616 77.1558 134.897 78.1271L134.896 78.8777L134.787 79.5239L122.145 79.1426C119.069 78.689 112.418 79.275 110.666 78.1953C111.638 77.7338 125.307 78.0348 128.316 77.5451Z" fill="#6B6963"/>
</svg>
